<svg xmlns="http://www.w3.org/2000/svg" xmlns:xlink="http://www.w3.org/1999/xlink" viewBox="-32 -12 450.6 283"><style>*{fill:none;stroke:black}svg>path{stroke-linecap:round}path{stroke-width:3}#txt path{fill:black;stroke-width:0}.v>*{stroke:#d12938;stroke-width:2.55}.v>path{stroke-width:1.5;fill:#7b1d23}#ground>path{stroke-width:2.61;stroke-linecap:round}</style><path d="M348 108v40"/><path d="M348 200v61"/><path d="M174 0V109.5"/><path d="M174 151.5V261"/><path d="M0 0V106"/><path d="M0 155V261"/><path d="M348 0V66"/><path d="M137.75 0H348"/><path d="M0 261H348"/><path d="M50.75 0h72.5"/><path d="M0 0H36.25"/><defs><path id="resistor" style="stroke:#257eb8;stroke-linejoin:bevel" d="M-21.6 0h1.23l3.87 7.14L-9.9-7.14-3.3 7.14L3.3-7.14L9.9 7.14L16.5-7.14L20.37 0H21.6"/><g id="inductor" transform="rotate(90)"><path d="M0 29.49v-6M0-20.43v-6"/><path style="stroke:#572581;" d="M1.38 22.05c-3.09 .09-11.82 .42-11.34-5.01c0-5.46 6.09-5.97 6.09-5.97c0 0-6.09 0-6.09-5.43c0-5.46 6.09-5.46 6.09-5.46c0 0-6.09 0-6.09-5.46c0-5.46 6.09-5.43 6.09-5.43c0 0-6.09-.51-6.09-5.97c0-5.46 6.39-4.62 11.43-4.62"/></g><g class="v" id="ind_v"><circle r="23.49"/><path d="M0-15V.99"/><path d="M-7.86-7.05H7.89"/><path d="M-7.86 10.71H7.89"/></g><g id="ground"><path d="M-8.67 21.66H8.64"/><path d="M-6.48 26.01H6.45"/><path d="M-2.79 30.42H2.76"/><path d="M0 20.55V0" style="stroke-width:3"/></g><path id="mesh_current" d="M3.48-34.14c-6.93-.54-14.01 .96-20.28 4.71C-29.31-21.99-35.76-7.38-32.79 6.9c2.94 14.28 14.61 25.14 29.07 27.06c14.46 1.89 28.53-5.52 35.1-18.57l-2.19-1.08C23.1 26.43 9.99 33.39-3.45 31.59c-13.44-1.77-24.3-11.88-27.03-25.17C-33.21-6.87-27.24-20.43-15.6-27.39c11.64-6.93 28.26-5.4 38.67 3.3l-2.16 2.16l12.63 7.44L26.79-27.42l-2.43 2.07c-5.61-4.68-13.95-8.22-20.88-8.79Z" style="stroke:none;fill:#7b1d23"/><circle id="ring" r="6" stroke-width="3"/><polygon id="arrow" points="6,0 -6,4 -6,-4" style="fill:black"/><g id="txt"><path d="M1894 2739l-32-205H1325L768 435q-13-51-13-89q0-103 96-103q77 0 179 99q103 100 340 407l83-45Q1158 256 969 93Q781-70 538-70Q243-70 243 166q0 64 103 474L845 2534H365l-7 39q0 115 212 160q160 38 422 246q262 208 429 458q38 57 89 57q58 0 58-51q0-32-6-45l-180-659h512Z" id="txt0"/><path d="M4077 2048H307v422H4077V2048ZM4077 768H307v422H4077V768Z" id="txt1"/><path d="M3046 2112q0-429-83-810-83-380-246-700Q2554 282 2266 96Q1978-90 1600-90q-390 0-685 198Q621 307 461 640Q301 973 227 1350q-73 378-73 800q0 596 147 1072q147 477 489 790q343 314 836 314q627 0 1023-614q397-614 397-1600ZM2432 2080q0 1011-215 1545-214 535-630 535-397 0-608-538Q768 3085 768 2106q0-986 211-1508Q1190 77 1600 77q403 0 617 521q215 522 215 1482Z" id="txt2"/><path d="M1690 3834q0-135-93-231-93-96-221-96-141 0-224 93-83 93-83 246q0 148 86 244q87 96 215 96q128 0 224-106q96-106 96-246ZM1421 730l83-71Q1235 243 1049 86Q864-70 627-70Q314-70 314 282q0 185 140 710L762 2125q57 205 57 281q0 96-74 122-73 26-335 32v102q294 26 1024 160l25-19L858 608q-64-218-64-282q0-96 89-96q160 0 538 500Z" id="txt3"/><path d="M3578 1152L3206 0H-51V102q269 26 352 109q83 83 173 391l780 2803q71 237 71 397q0 140-100 198-99 58-393 77v102H2579V4077q-294-19-432-122-137-102-214-371L1165 838q-64-243-64-345q0-147 140-205q141-58 532-58q493 0 707 45q214 45 445 199q262 172 525 716l128-38Z" id="txt4"/><path d="M1946-1030l-77-103Q1126-710 716 32Q307 774 307 1613q0 1773 1581 2713l58-102q-653-557-871-1098Q858 2586 858 1632q0-947 224-1536q224-589 864-1126Z" id="txt5"/><path d="M186 4224l76 102q730-435 1146-1178q416-742 416-1567q0-1747-1581-2714l-57 103Q845-486 1059 54q215 541 215 1508q0 972-215 1558Q845 3706 186 4224Z" id="txt6"/><path d="M723 3149L269 3258q141 499 467 783q326 285 819 285q455 0 762-288q307-288 307-716q0-570-550-954q358-128 553-426q195-297 195-598q0-621-403-1024Q2010-90 1312-90Q608-90 198 358L499 717q327-352 781-352q474 0 742 230q295 250 295 627q0 333-240 557-240 224-656 282H1011v134l307 327q288 0 544 220q256 221 256 535q0 269-170 432-169 163-412 163-256 0-477-183-221-182-336-540Z" id="txt7"/><path d="M2893 0H2234L909 1325V0H403V4224l448 154l58-32V1939l1267 960h666v-89L1267 1632L2893 0Z" id="txt8"/><path d="M4576 557L4512 0H2714l44 1120q455 115 781 467q327 352 327 903q0 633-423 991-422 359-1062 359-627 0-1056-394-429-393-429-956q0-544 317-890q317-346 784-480L2054 0H250L186 557H1517l-13 211Q339 1242 339 2477q0 729 557 1289q557 560 1485 560q915 0 1478-550q563-550 563-1299q0-647-326-1076-326-428-832-633l-13-211H4576Z" id="txt9"/><path d="M1933 0H1427V3648q-141-64-419-208-278-144-317-163v467l1152 589l90-32V0Z" id="txt10"/><path d="M3002 454L2816 0H224V134L1344 1504v-6l358 435q250 301 352 432q103 131 199 320q96 189 96 355q0 397-215 614-214 218-585 218-295 0-541-243-246-243-310-691L237 3046q102 570 479 925q378 355 878 355q556 0 908-346q352-345 352-838q0-358-134-617-134-259-563-797L1133 454H3002Z" id="txt11"/><path d="M3987 4237L2176-70H2010L198 4237H813L2099 1050L3373 4237h614Z" id="txt12"/><path d="M2867 4275l-115-339q-730-51-1239-419-508-368-732-1034q377 275 877 275q550 0 950-371q400-371 400-979q0-621-387-1060Q2234-90 1645-90q-493 0-829 259Q480 429 342 816q-137 387-137 874q0 544 192 1065q192 522 518 842q429 422 819 566q391 144 1127 215l6-103ZM2496 1325q0 461-263 720-262 259-627 259-332 0-582-195-250-195-307-573q0-518 256-845q256-326 691-326q352 0 592 272q240 272 240 688Z" id="txt13"/><path d="M4422 0H3930V1875q0 634-506 634-173 0-420-164-246-163-335-412V0H2170V1856q0 653-493 653-173 0-429-160-256-160-339-416V0H416V2816l416 154l58-32V2573q313 390 889 390q570 0 839-416q377 416 908 416q378 0 637-247q259-246 259-700V0Z" id="txt14"/><path d="M3738 0H3181V1926H1030V0H474V4237h556V2400H3181V4237h557V0Z" id="txt15"/><path d="M3974 1408H410v422H3974V1408Z" id="txt16"/><path d="M4070 1408H2400V-262H1978V1408H307v422H1978V3501h422V1830H4070V1408Z" id="txt17"/><path d="M1325 448l198 205q346 352 611 803q266 451 266 675q0 77-115 186-160 141-160 288q0 96 70 156q71 61 173 61q154 0 256-118q102-118 102-259q0-371-403-992-352-544-761-979-58-58-141-148-83-89-122-134-38-45-99-106-61-60-90-89-28-29-67-61-38-32-64-41-25-10-51-10-58 0-58 173V211q0 883-153 1779-64 365-138 480-73 116-253 116-128 0-198-7v83q352 58 717 135q70 25 128 25q38 0 60-83q23-83 132-646q115-583 160-1645Z" id="txt18"/></g></defs><use href="#resistor" x="348" y="87" transform="rotate(-90,348,87)"/><use href="#ind_v" x="0" y="130.5"/><use href="#resistor" x="174" y="130.5" transform="rotate(-90,174,130.5)"/><use href="#mesh_current" x="261" y="130.5" transform="scale(-1,1)translate(-522,0)"/><use href="#inductor" x="348" y="174" transform="rotate(-90,348,174)"/><use href="#ground" x="348" y="261" transform="rotate(270,348,261)"/><use href="#ring" x="43.5" y="0"/><use href="#ring" x="130.5" y="0"/><use href="#arrow" x="118.175" y="0"/><use href="#arrow" x="261" y="0" transform="rotate(180,261,0)"/><g transform="scale(3125e-6 -3125e-6)"><g transform="scale(.7)"><use href="#txt4" x="114084.57" y="-11412.29"/><use href="#txt4" x="168448" y="-82040.86"/></g><use href="#txt0" x="34144" y="-12262"/><use href="#txt0" x="84763.48" y="-7142"/><use href="#txt1" x="36847.36" y="-12262"/><use href="#txt2" x="42155.52" y="-12262"/><use href="#txt3" x="78080" y="-7142"/><use href="#txt5" x="82632.28" y="-7142"/><use href="#txt6" x="86542.68" y="-7142"/><use href="#txt7" x="117106.37" y="-29882"/><use href="#txt8" x="120306.37" y="-29882"/><use href="#txt8" x="40882.37" y="-43802"/><use href="#txt9" x="124549.58" y="-29882"/><use href="#txt9" x="45125.58" y="-43802"/><use href="#txt10" x="11314.37" y="-43821"/><use href="#txt11" x="14514.37" y="-43821"/><use href="#txt11" x="93362.37" y="-57894"/><use href="#txt12" x="17714.37" y="-43821"/><use href="#txt13" x="37682.37" y="-43802"/><use href="#txt14" x="96562.37" y="-57894"/><use href="#txt15" x="101400.77" y="-57894"/><use href="#txt16" x="115072" y="-65894"/><use href="#txt17" x="115072" y="-47981"/><use href="#txt18" x="115072" y="-56582"/></g></svg>