<svg viewBox="-30, -30, 100, 100" xmlns="http://www.w3.org/2000/svg">
  <desc></desc>
  <style>
    * {
      fill: none;
      stroke: black;
    }

    svg>path {
      stroke-linecap: round
    }

    path {
      stroke-width: 3;
    }

    #text_1 path {
      fill: black;
    }

    #patch_1 path {
      stroke: none;
    }

    .v>* {
      stroke: #d12938;
      stroke-width: 2.55;
    }

    .v>path {
      stroke-width: 1.5;
      fill: #7b1d23;
    }

    .c>* {
      stroke: #7b1d23;
      stroke-width: 2.55;
    }

    .c>path {
      stroke-width: 0;
      fill: #7b1d23;
    }

    #ground>path {
      stroke-width: 2.61;
      stroke-linecap: round
    }

    #current_dir,
    #mesh_current {
      stroke: none;
      fill: #7b1d23;
    }
    
    svg>circle{
      fill :black;
      stroke: none;
    }
  </style>

  <defs>
    <path id="capacitor" style="stroke:#875e7f" d="m 7,-15.96 c 0,0 -10.86,16.08 0 31.86 m -9.72,-31.86 v 31.86" />
    <path id="resistor" style="stroke:#257eb8;stroke-linejoin: bevel"
      d="m -21.6,0 h 1.23 l 3.87,7.14 6.6,-14.28 6.6,14.28 6.6,-14.28 6.6,14.28 6.6,-14.28 3.87,7.14 h 1.23" />

    <g id="inductor" transform="rotate(90)">
      <path d="m 0,29.49 v -6 m 0,-43.92 v -6" />
      <path style="stroke:#572581;"
        d="m 1.38,22.05 c -3.09,0.09 -11.82,0.42 -11.34,-5.01 0,-5.46 6.09,-5.97 6.09,-5.97 0,0 -6.09,0 -6.09,-5.43 0,-5.46 6.09,-5.46 6.09,-5.46 0,0 -6.09,-0 -6.09,-5.46 0,-5.46 6.09,-5.43 6.09,-5.43 0,0 -6.09,-0.51 -6.09,-5.97 0,-5.46 6.39,-4.62 11.43,-4.62" />
    </g>
    <g class="v" id="ind_v">
      <circle r="23.49" />
      <path d="M 0 -15 V0.99" />
      <path d="M -7.86 -7.05 H7.89" />
      <path d="M -7.86 10.71 H7.89" />
    </g>
    <g class="v" id="d_v">
      <rect width="41.31" height="41.31" x="-20.8" y="-20.8" transform="rotate(45)" />
      <path d="M0 -15.7 V0" />
      <path d="M-7.86 -7.7 H7.89" />
      <path d="M-7.86 10 H7.89" />
    </g>
    <g class="c" id="ind_c">
      <circle r="23.49" />
      <path d="m-1.17,18.45 h 2.07 v -23.37 h 3.84 l -4.89,-13.17 -4.62,13.17 h 3.63 z" />
    </g>
    <g class="c" id="d_c">
      <rect width="41.31" height="41.31" x="-20.8" y="-20.8" transform="rotate(45)" />
      <path d="m -1.2,17.79 h 2.07 v -23.37 h 3.84 l -4.89,-13.17 -4.62,13.17 h 3.63 z" />
    </g>
    <g id="ground">
      <path d="m -8.67,21.66 h 17.31" />
      <path d="m -6.48,26.01 h 12.93" />
      <path d="m -2.79,30.42 h 5.55" />
      <path d="m 0,20.55 V0" style="stroke-width:3" />
    </g>

    <path id="current_dir" d="M -33.03,-1.08 H 17.82 V -4.08 L 32.79,0 17.82,4.08 V 1.11 H -33.03 Z" />
    <path id="mesh_current"
      d="m 3.48,-34.14 c -6.93,-0.54 -14.01,0.96 -20.28,4.71 -12.51,7.44 -18.96,22.05 -15.99,36.33 2.94,14.28 14.61,25.14 29.07,27.06 14.46,1.89 28.53,-5.52 35.1,-18.57 L 29.19,14.31 C 23.1,26.43 9.99,33.39 -3.45,31.59 -16.89,29.82 -27.75,19.71 -30.48,6.42 c -2.73,-13.29 3.24,-26.85 14.88,-33.81 11.64,-6.93 28.26,-5.4 38.67,3.3 l -2.16,2.16 12.63,7.44 -6.75,-12.93 -2.43,2.07 C 18.75,-30.03 10.41,-33.57 3.48,-34.14 Z" />
    <circle id="ring" r="6" stroke-width="3" />
    <circle id="node" r="4.5" style="fill:black" />
    <circle id="round" r="1.5" style="fill:black;stroke:none" />
    <polygon id="arrow" points="6,0 -6,4 -6,-4" style="fill:black" />
    <rect id="box" width="40" height="35" stroke-width="3" />
  </defs>
</svg>